<svg xmlns="http://www.w3.org/2000/svg" viewBox="0 0 64 64" width="64" height="64"><rect width="64" height="64" fill="#0a0a10"/><polygon points="32.0,32.0,32.0,32.0,32.0,32.0,32.0,32.0,32.0,32.0,32.0,32.0,32.0,32.0,32.0,32.0,32.0,32.0,32.0,32.0,32.0,32.0" fill="none" stroke="#1a2a4a" stroke-width="0.5333333333333333" opacity="0.8"/><polygon points="35.5,33.7,32.9,35.7,29.6,35.0,28.2,32.0,29.6,29.0,32.8,28.3,35.5,30.3,35.5,33.7" fill="none" stroke="#c0c0c0" stroke-width="0.5333333333333333" opacity="0.7285714285714285"/><polygon points="35.5,33.7,32.5,34.2,29.6,35.0,29.7,32.0,29.6,29.0,32.5,29.8,35.5,30.3,34.1,33.0" fill="#c0c0c0" fill-opacity="0.07598404970020056" stroke="#c0c0c0" stroke-width="0.32" opacity="0.7142857142857142"/><polygon points="27.0,26.2,31.4,24.3,36.0,25.4,39.1,29.0,39.5,33.8,37.0,37.8,32.6,39.7,28.0,38.6,24.9,35.0,24.5,30.2,27.0,26.2" fill="none" stroke="#8b1a1a" stroke-width="0.5333333333333333" opacity="0.6571428571428571"/><polygon points="41.9,37.9,33.5,43.4,24.0,40.3,20.5,30.9,25.7,22.4,35.6,21.1,42.8,28.0,41.9,37.9" fill="none" stroke="#d4af37" stroke-width="0.5333333333333333" opacity="0.5857142857142856"/><polygon points="41.9,37.9,32.9,38.9,24.0,40.3,25.1,31.4,25.7,22.4,34.2,25.4,42.8,28.0,37.9,35.6" fill="#d4af37" fill-opacity="0.09811829319223761" stroke="#d4af37" stroke-width="0.32" opacity="0.5428571428571428"/><polygon points="47.2,30.1,45.5,39.4,38.6,45.9,29.1,47.1,20.8,42.5,16.8,33.9,18.5,24.6,25.4,18.1,34.9,16.9,43.2,21.5,47.2,30.1" fill="none" stroke="#1a2a4a" stroke-width="0.5333333333333333" opacity="0.5142857142857142"/><polygon points="23.2,14.9,33.9,12.9,43.9,16.9,50.2,25.7,50.7,36.6,45.2,45.9,35.6,50.9,24.8,49.8,16.3,43.1,12.8,32.9,15.4,22.4,23.2,14.9" fill="none" stroke="#c0c0c0" stroke-width="0.5333333333333333" opacity="0.44285714285714284"/><polygon points="23.2,14.9,33.1,20.5,43.9,16.9,42.9,28.2,50.7,36.6,39.9,40.3,35.6,50.9,27.7,42.7,16.3,43.1,20.5,32.5,15.4,22.4,26.7,21.8" fill="#c0c0c0" fill-opacity="0.08504654178395868" stroke="#c0c0c0" stroke-width="0.32" opacity="0.37142857142857144"/><polygon points="48.0,48.6,31.6,55.0,15.4,48.0,9.0,31.6,16.0,15.4,32.4,9.0,48.6,16.0,55.0,32.4,48.0,48.6" fill="none" stroke="#8b1a1a" stroke-width="0.5333333333333333" opacity="0.37142857142857144"/><polygon points="50.5,51.5,28.3,58.6,8.9,45.7,6.9,22.5,23.8,6.4,46.9,9.6,58.8,29.7,50.5,51.5" fill="none" stroke="#d4af37" stroke-width="0.5333333333333333" opacity="0.3"/><polygon points="32,27.968;36.032,32;32,36.032;27.968,32" fill="#d4af37" fill-opacity="0.7" stroke="#d4af37" stroke-width="0.4266666666666667"/><circle cx="54.8" cy="33.6" r="0.8" fill="#d4af37" opacity="0.6679731251206249"/><circle cx="52.5" cy="42.0" r="0.8" fill="#8b1a1a" opacity="0.5409586780704558"/><circle cx="46.0" cy="50.1" r="0.8" fill="#c0c0c0" opacity="0.6200713488971814"/><circle cx="35.8" cy="54.5" r="0.8" fill="#d4af37" opacity="0.694704317371361"/><circle cx="26.7" cy="54.2" r="0.8" fill="#8b1a1a" opacity="0.5873291168361903"/><circle cx="17.7" cy="49.8" r="0.8" fill="#c0c0c0" opacity="0.7266996249789373"/><circle cx="10.8" cy="40.6" r="0.8" fill="#d4af37" opacity="0.7731466934783384"/><circle cx="9.3" cy="29.7" r="0.8" fill="#8b1a1a" opacity="0.5438700752099976"/><circle cx="11.7" cy="21.5" r="0.8" fill="#c0c0c0" opacity="0.5783724802546203"/><circle cx="18.1" cy="13.9" r="0.8" fill="#d4af37" opacity="0.6557280898094178"/><circle cx="27.6" cy="9.6" r="0.8" fill="#8b1a1a" opacity="0.7747398945502937"/><circle cx="37.7" cy="9.9" r="0.8" fill="#c0c0c0" opacity="0.6136921781348065"/><circle cx="47.5" cy="15.2" r="0.8" fill="#d4af37" opacity="0.7587165931705385"/><circle cx="53.5" cy="24.2" r="0.8" fill="#8b1a1a" opacity="0.6820792845683172"/></svg>