<svg xmlns="http://www.w3.org/2000/svg" viewBox="0 0 800 800" width="800" height="800"><rect width="800" height="800" fill="#0a0a10"/><polygon points="400.0,400.0,400.0,400.0,400.0,400.0,400.0,400.0,400.0,400.0,400.0,400.0,400.0,400.0" fill="none" stroke="#8b1a1a" stroke-width="6.666666666666667" opacity="0.8"/><polygon points="372.8,338.5,410.4,333.6,444.6,349.8,464.7,381.9,464.2,419.7,443.4,451.3,408.7,466.6,371.3,460.8,343.0,435.6,332.8,399.2,343.9,363.0,372.8,338.5" fill="none" stroke="#d4af37" stroke-width="6.666666666666667" opacity="0.7"/><polygon points="372.8,338.5,406.2,360.2,444.6,349.8,438.8,389.1,464.2,419.7,426.0,430.8,408.7,466.6,382.8,436.5,343.0,435.6,359.7,399.5,343.9,363.0,383.7,363.1" fill="#d4af37" fill-opacity="0.10725587394088507" stroke="#d4af37" stroke-width="4" opacity="0.6799999999999999"/><polygon points="299.7,310.6,371.4,268.7,454.1,276.9,516.1,332.2,533.7,413.4,500.3,489.4,428.6,531.3,345.9,523.1,283.9,467.8,266.3,386.6,299.7,310.6" fill="none" stroke="#1a2a4a" stroke-width="6.666666666666667" opacity="0.6"/><polygon points="590.6,334.3,570.2,508.0,421.7,600.4,256.8,541.9,199.8,376.5,293.5,228.8,467.5,210.0,590.6,334.3" fill="none" stroke="#c0c0c0" stroke-width="6.666666666666667" opacity="0.5"/><polygon points="590.6,334.3,502.1,464.8,421.7,600.4,314.1,485.1,199.8,376.5,336.1,297.3,467.5,210.0,514.4,360.6" fill="#c0c0c0" fill-opacity="0.07697020126506687" stroke="#c0c0c0" stroke-width="4" opacity="0.44"/><polygon points="158.6,281.8,291.1,154.3,474.5,141.7,623.1,250.0,667.3,428.5,586.4,593.7,418.3,668.2,241.7,617.2,139.1,464.6,158.6,281.8" fill="none" stroke="#8b1a1a" stroke-width="6.666666666666667" opacity="0.4"/><polygon points="541.5,95.2,693.6,236.6,733.6,440.4,646.1,628.7,464.7,729.7,258.5,704.8,106.4,563.4,66.4,359.6,153.9,171.3,335.3,70.3,541.5,95.2" fill="none" stroke="#d4af37" stroke-width="6.666666666666667" opacity="0.3"/><polygon points="400,349.6;450.4,400;400,450.4;349.6,400" fill="#d4af37" fill-opacity="0.7" stroke="#d4af37" stroke-width="5.333333333333333"/><circle cx="685.6" cy="403.3" r="10" fill="#d4af37" opacity="0.6003746132133528"/><circle cx="646.0" cy="545.1" r="10" fill="#8b1a1a" opacity="0.7743128845002503"/><circle cx="575.2" cy="625.6" r="10" fill="#c0c0c0" opacity="0.5779548877617344"/><circle cx="446.9" cy="681.7" r="10" fill="#d4af37" opacity="0.6501603569136932"/><circle cx="330.0" cy="676.9" r="10" fill="#8b1a1a" opacity="0.688418521778658"/><circle cx="216.6" cy="618.9" r="10" fill="#c0c0c0" opacity="0.5319270337233319"/><circle cx="137.3" cy="512.0" r="10" fill="#d4af37" opacity="0.6591938732890412"/><circle cx="115.1" cy="380.1" r="10" fill="#8b1a1a" opacity="0.7702381463255733"/><circle cx="146.9" cy="267.7" r="10" fill="#c0c0c0" opacity="0.7168335193535313"/><circle cx="235.0" cy="166.9" r="10" fill="#d4af37" opacity="0.7323990626493468"/><circle cx="351.0" cy="118.6" r="10" fill="#8b1a1a" opacity="0.5408207114553079"/><circle cx="464.1" cy="121.7" r="10" fill="#c0c0c0" opacity="0.6026860132580623"/><circle cx="594.4" cy="190.7" r="10" fill="#d4af37" opacity="0.5442554786102847"/><circle cx="660.5" cy="282.8" r="10" fill="#8b1a1a" opacity="0.5410574063425884"/></svg>